<svg version="1.1" xmlns="http://www.w3.org/2000/svg" xmlns:xlink="http://www.w3.org/1999/xlink" id="screenImg" viewBox="0 0 800 1000 ">
<g id="theater">
	<rect x="715" y="128" width="10" height="85"></rect>
	<rect x="230" y="107" width="340" height="10"></rect>
	<rect x="80" y="87" class="st1" width="640" height="742"></rect>
		<path d="M741.117,150.017v-1.365h5.418v-3.233h-5.775v-1.429h5.775v-2.877h1.638v8.757c0,0.868-0.028,1.604-0.084,2.205
			c0.196-0.056,0.651-0.217,1.365-0.482l0.314,1.428c-0.279,0.099-0.917,0.315-1.91,0.651c-0.309,1.54-0.872,2.811-1.69,3.812
			c-0.819,1-1.999,1.9-3.539,2.698l-1.05-1.344c1.189-0.588,2.132-1.235,2.824-1.942c0.693-0.707,1.215-1.586,1.564-2.636
			c-1.708,0.504-3.451,0.944-5.229,1.323l-0.294-1.429c2.058-0.447,4.018-0.959,5.88-1.533c0.111-0.728,0.182-1.596,0.21-2.604
			H741.117z M759.45,153.649v1.428h-6.363v4.81h-1.68v-18.774h1.68v2.877h6.153v1.429h-6.153v3.297h5.796v1.364h-5.796v3.57H759.45z
			"></path>
		<path d="M743.385,162.344l1.429-0.42c0.447,0.616,0.951,1.407,1.512,2.373h2.835v-2.667h1.68v2.667h2.919
			c0.518-0.84,0.987-1.673,1.407-2.499l1.407,0.42c-0.252,0.518-0.638,1.211-1.155,2.079h3.57v4.83h-1.597v-3.466h-14.783v3.466
			h-1.597v-4.83h3.633C744.225,163.61,743.805,162.96,743.385,162.344z M745.548,172.34h-1.638v-5.523h12.18v5.523h-5.354v1.322
			h7.098v3.718c0,1.134-0.119,1.837-0.357,2.11c-0.238,0.272-0.84,0.409-1.806,0.409c-0.434,0-1.344-0.035-2.729-0.104l-0.063-1.407
			c1.05,0.07,1.841,0.104,2.373,0.104c0.476,0,0.76-0.052,0.851-0.157c0.091-0.104,0.137-0.438,0.137-0.997v-2.269h-5.502v5.817
			h-1.681v-5.817h-5.292v4.978h-1.596v-6.385h6.888v-1.322H745.548z M745.548,171.079h8.904v-3.003h-8.904V171.079z"></path>
		<path d="M741.705,184.478h16.59v17.01h-1.68v-1.322h-13.23v1.322h-1.68V184.478z M743.385,198.758h13.23v-12.831h-13.23V198.758z"></path>
	<rect x="230" y="824" width="340" height="10"></rect>
		<path d="M374.767,799.733v5.396h4.893v-7.203h1.68v7.203h4.893v-5.396h1.617v6.804h-6.51v7.455h5.88v-5.775h1.617v8.526h-1.617
			v-1.323h-13.44v1.323h-1.617v-8.526h1.617v5.775h5.88v-7.455h-6.51v-6.804H374.767z"></path>
		<path d="M401.248,800.3h-5.754v-1.47h7.434v1.953c0,3.178,0.728,6.107,2.184,8.788c1.456,2.682,3.353,4.624,5.691,5.828
			l-0.861,1.26c-1.806-0.868-3.409-2.271-4.809-4.211c-1.4-1.938-2.422-4.126-3.066-6.563c-0.77,2.339-1.963,4.48-3.581,6.426
			c-1.617,1.946-3.426,3.396-5.428,4.348l-0.861-1.26c2.59-1.288,4.746-3.276,6.468-5.965c1.722-2.688,2.583-5.383,2.583-8.085
			V800.3z"></path>
		<path d="M414.205,799.418h16.59v17.01h-1.68v-1.322h-13.23v1.322h-1.68V799.418z M415.885,813.698h13.23v-12.831h-13.23V813.698z"></path>
		<path d="M357.864,40.58c2.52,0.448,5.582,1.036,9.184,1.764l-0.532,2.716c-3.398-0.69-6.459-1.278-9.184-1.764L357.864,40.58z
			 M377.1,37.472l2.8,0.477c-1.045,5.898-3.192,10.238-6.44,13.02c-3.248,2.782-8.102,4.452-14.56,5.013l-0.42-2.801
			c5.917-0.504,10.267-1.927,13.048-4.27S376.167,42.755,377.1,37.472z M359.124,33.72c2.65,0.43,5.824,1.018,9.52,1.765
			l-0.532,2.716c-3.696-0.746-6.87-1.335-9.52-1.765L359.124,33.72z"></path>
		<path d="M385.78,36.66h8.596V32.6h3.08v4.061h9.044v2.66c-1.55,2.427-3.622,4.545-6.216,6.355c2.277,1.568,4.797,3.379,7.56,5.433
			l-1.848,2.184c-2.184-1.624-4.975-3.603-8.372-5.936l-0.168,0.084v9.239h-3.08v-7.728c-2.968,1.288-6.169,2.324-9.604,3.107
			l-0.7-2.716c4.237-0.97,7.961-2.314,11.172-4.032c3.21-1.717,5.777-3.714,7.7-5.991H385.78V36.66z"></path>
		<path d="M412.8,37.584V34.84h22.344v2.744c-0.747,2.482-2.077,4.788-3.99,6.916s-4.316,3.948-7.21,5.46
			c0.374,0.542,1.502,2.222,3.388,5.04l-2.604,1.624c-3.043-4.573-5.89-8.633-8.54-12.18l2.52-1.708
			c1.68,2.259,2.837,3.836,3.472,4.731c2.296-1.138,4.335-2.608,6.118-4.41c1.783-1.801,3-3.626,3.654-5.474H412.8z"></path>
		<path d="M451.86,55V38.144h-0.056l-6.3,4.816l-1.204-2.52l7.56-5.881h3.08V55H451.86z"></path>
		<path d="M372.737,125.508c-0.825,0-1.496,0.198-2.014,0.594c-0.518,0.396-0.776,0.912-0.776,1.549
			c0,0.695,0.206,1.274,0.619,1.736c0.412,0.462,1.099,0.886,2.059,1.27c1.53,0.576,2.587,1.17,3.172,1.782
			c0.585,0.611,0.877,1.416,0.877,2.411c0,1.08-0.36,1.905-1.08,2.476c-0.72,0.57-1.748,0.854-3.083,0.854
			c-1.305,0-2.505-0.323-3.6-0.972v-1.08c1.17,0.816,2.392,1.224,3.667,1.224c0.959,0,1.691-0.213,2.194-0.639
			c0.502-0.426,0.753-1.047,0.753-1.863c0-0.768-0.221-1.395-0.664-1.881c-0.443-0.485-1.226-0.944-2.351-1.377
			c-1.335-0.504-2.288-1.064-2.858-1.683c-0.57-0.618-0.855-1.371-0.855-2.259c0-0.876,0.356-1.59,1.069-2.143
			c0.712-0.552,1.646-0.828,2.801-0.828c1.29,0,2.475,0.24,3.555,0.721v1.025C375.115,125.814,373.953,125.508,372.737,125.508z"></path>
		<path d="M384.82,125.508c-2.655,0-3.982,1.975-3.982,5.922c0,3.948,1.328,5.922,3.982,5.922c0.945,0,1.868-0.216,2.768-0.647
			v0.918c-0.87,0.372-1.808,0.558-2.813,0.558c-0.75,0-1.414-0.104-1.991-0.314c-0.578-0.21-1.106-0.562-1.586-1.054
			c-0.48-0.491-0.847-1.19-1.102-2.097c-0.255-0.905-0.383-2.001-0.383-3.285c0-2.315,0.424-4.02,1.271-5.111
			c0.847-1.092,2.111-1.639,3.791-1.639c0.93,0,1.83,0.187,2.7,0.559v0.882C386.605,125.712,385.72,125.508,384.82,125.508z"></path>
		<path d="M399.445,128.19c0,1.8-0.938,2.945-2.813,3.438v0.036c0.75,0.24,1.357,1.032,1.823,2.376l1.395,3.96h-1.215l-1.305-3.942
			c-0.27-0.804-0.611-1.353-1.024-1.646s-1.061-0.441-1.946-0.441h-1.867V138h-1.147v-13.068c1.049-0.168,2.1-0.252,3.15-0.252
			c1.68,0,2.925,0.288,3.735,0.864S399.445,127.002,399.445,128.19z M392.493,131.16h1.575c1.53,0,2.622-0.228,3.274-0.685
			c0.652-0.455,0.979-1.218,0.979-2.285c0-0.925-0.319-1.605-0.956-2.043c-0.638-0.438-1.624-0.657-2.959-0.657
			c-0.705,0-1.342,0.048-1.912,0.144V131.16z"></path>
		<path d="M403.855,125.688v4.752h6.053v0.81h-6.053v5.922h6.277V138h-7.425v-13.14h7.425v0.828H403.855z"></path>
		<path d="M415.105,125.688v4.752h6.053v0.81h-6.053v5.922h6.277V138h-7.425v-13.14h7.425v0.828H415.105z"></path>
		<path d="M432.813,124.86V138h-1.26l-5.4-11.25h-0.045V138h-1.17v-13.14h1.305l5.4,11.25h0.045v-11.25H432.813z"></path>
</g>
<g id="seatmap">
	<g id="J-3">
		<polygon class="st4" points="514,178 523.818,178 523.818,185.409 540.182,185.409 540.182,178 550,178 550,214 514,214 		"></polygon>
		<text transform="matrix(1 0 0 1 526.1758 207)" class="st2 st0 st5">3</text>
	</g>
	<g id="J-4">
		<polygon class="st4" points="470,178 479.818,178 479.818,185.409 496.182,185.409 496.182,178 506,178 506,214 470,214 		"></polygon>
		<text transform="matrix(1 0 0 1 482.1758 207)" class="st2 st0 st5">4</text>
	</g>
	<g id="J-5">
		<polygon class="st4" points="426,178 435.818,178 435.818,185.409 452.182,185.409 452.182,178 462,178 462,214 426,214 		"></polygon>
		<text transform="matrix(1 0 0 1 438.1758 207)" class="st2 st0 st5">5</text>
	</g>
	<g id="J-6">
		<polygon class="st4" points="382,178 391.818,178 391.818,185.409 408.182,185.409 408.182,178 418,178 418,214 382,214 		"></polygon>
		<text transform="matrix(1 0 0 1 394.1758 207)" class="st2 st0 st5">6</text>
	</g>
	<g id="J-7">
		<polygon class="st4" points="338,178 347.818,178 347.818,185.409 364.182,185.409 364.182,178 374,178 374,214 338,214 		"></polygon>
		<text transform="matrix(1 0 0 1 350.1758 207)" class="st2 st0 st5">7</text>
	</g>
	<g id="J-8">
		<polygon class="st4" points="294,178 303.818,178 303.818,185.409 320.182,185.409 320.182,178 330,178 330,214 294,214 		"></polygon>
		<text transform="matrix(1 0 0 1 306.1758 207)" class="st2 st0 st5">8</text>
	</g>
	<g id="J-9">
		<polygon class="st4" points="250,178 259.818,178 259.818,185.409 276.182,185.409 276.182,178 286,178 286,214 250,214 		"></polygon>
		<text transform="matrix(1 0 0 1 262.1758 207)" class="st2 st0 st5">9</text>
	</g>
	<g id="J-10">
		<polygon class="st4" points="206,178 215.818,178 215.818,185.409 232.182,185.409 232.182,178 242,178 242,214 206,214 		"></polygon>
		<text transform="matrix(1 0 0 1 212.3525 207)" class="st2 st0 st5">10</text>
	</g>
	<g id="J-11">
		<polygon class="st4" points="162,178 171.818,178 171.818,185.409 188.182,185.409 188.182,178 198,178 198,214 162,214 		"></polygon>
		<text transform="matrix(1 0 0 1 168.3525 207)" class="st2 st0 st5">11</text>
	</g>
	<g id="I-1">
		<polygon class="st4" points="602,239 611.818,239 611.818,246.409 628.182,246.409 628.182,239 638,239 638,275 602,275 		"></polygon>
		<text transform="matrix(1 0 0 1 614.1758 268)" class="st2 st0 st5">1</text>
	</g>
	<g id="I-2">
		<polygon class="st4" points="558,239 567.818,239 567.818,246.409 584.182,246.409 584.182,239 594,239 594,275 558,275 		"></polygon>
		<text transform="matrix(1 0 0 1 570.1758 268)" class="st2 st0 st5">2</text>
	</g>
	<g id="I-3">
		<polygon class="st4" points="514,239 523.818,239 523.818,246.409 540.182,246.409 540.182,239 550,239 550,275 514,275 		"></polygon>
		<text transform="matrix(1 0 0 1 526.1758 268)" class="st2 st0 st5">3</text>
	</g>
	<g id="I-4">
		<polygon class="st4" points="470,239 479.818,239 479.818,246.409 496.182,246.409 496.182,239 506,239 506,275 470,275 		"></polygon>
		<text transform="matrix(1 0 0 1 482.1758 268)" class="st2 st0 st5">4</text>
	</g>
	<g id="I-5">
		<polygon class="st4" points="426,239 435.818,239 435.818,246.409 452.182,246.409 452.182,239 462,239 462,275 426,275 		"></polygon>
		<text transform="matrix(1 0 0 1 438.1758 268)" class="st2 st0 st5">5</text>
	</g>
	<g id="I-6">
		<polygon class="st4" points="382,239 391.818,239 391.818,246.409 408.182,246.409 408.182,239 418,239 418,275 382,275 		"></polygon>
		<text transform="matrix(1 0 0 1 394.1758 268)" class="st2 st0 st5">6</text>
	</g>
	<g id="I-7">
		<polygon class="st4" points="338,239 347.818,239 347.818,246.409 364.182,246.409 364.182,239 374,239 374,275 338,275 		"></polygon>
		<text transform="matrix(1 0 0 1 350.1758 268)" class="st2 st0 st5">7</text>
	</g>
	<g id="I-8">
		<polygon class="st4" points="294,239 303.818,239 303.818,246.409 320.182,246.409 320.182,239 330,239 330,275 294,275 		"></polygon>
		<text transform="matrix(1 0 0 1 306.1758 268)" class="st2 st0 st5">8</text>
	</g>
	<g id="I-9">
		<polygon class="st4" points="250,239 259.818,239 259.818,246.409 276.182,246.409 276.182,239 286,239 286,275 250,275 		"></polygon>
		<text transform="matrix(1 0 0 1 262.1758 268)" class="st2 st0 st5">9</text>
	</g>
	<g id="I-10">
		<polygon class="st4" points="206,239 215.818,239 215.818,246.409 232.182,246.409 232.182,239 242,239 242,275 206,275 		"></polygon>
		<text transform="matrix(1 0 0 1 212.3525 268)" class="st2 st0 st5">10</text>
	</g>
	<g id="I-11">
		<polygon class="st4" points="162,239 171.818,239 171.818,246.409 188.182,246.409 188.182,239 198,239 198,275 162,275 		"></polygon>
		<text transform="matrix(1 0 0 1 168.3525 268)" class="st2 st0 st5">11</text>
	</g>
	<g id="H-1">
		<polygon class="st4" points="602,300 611.818,300 611.818,307.409 628.182,307.409 628.182,300 638,300 638,336 602,336 		"></polygon>
		<text transform="matrix(1 0 0 1 614.1758 329)" class="st2 st0 st5">1</text>
	</g>
	<g id="H-2">
		<polygon class="st4" points="558,300 567.818,300 567.818,307.409 584.182,307.409 584.182,300 594,300 594,336 558,336 		"></polygon>
		<text transform="matrix(1 0 0 1 570.1758 329)" class="st2 st0 st5">2</text>
	</g>
	<g id="H-3">
		<polygon class="st4" points="514,300 523.818,300 523.818,307.409 540.182,307.409 540.182,300 550,300 550,336 514,336 		"></polygon>
		<text transform="matrix(1 0 0 1 526.1758 329)" class="st2 st0 st5">3</text>
	</g>
	<g id="H-4">
		<polygon class="st4" points="470,300 479.818,300 479.818,307.409 496.182,307.409 496.182,300 506,300 506,336 470,336 		"></polygon>
		<text transform="matrix(1 0 0 1 482.1758 329)" class="st2 st0 st5">4</text>
	</g>
	<g id="H-5">
		<polygon class="st4" points="426,300 435.818,300 435.818,307.409 452.182,307.409 452.182,300 462,300 462,336 426,336 		"></polygon>
		<text transform="matrix(1 0 0 1 438.1758 329)" class="st2 st0 st5">5</text>
	</g>
	<g id="H-6">
		<polygon class="st4" points="382,300 391.818,300 391.818,307.409 408.182,307.409 408.182,300 418,300 418,336 382,336 		"></polygon>
		<text transform="matrix(1 0 0 1 394.1758 329)" class="st2 st0 st5">6</text>
	</g>
	<g id="H-7">
		<polygon class="st4" points="338,300 347.818,300 347.818,307.409 364.182,307.409 364.182,300 374,300 374,336 338,336 		"></polygon>
		<text transform="matrix(1 0 0 1 350.1758 329)" class="st2 st0 st5">7</text>
	</g>
	<g id="H-8">
		<polygon class="st4" points="294,300 303.818,300 303.818,307.409 320.182,307.409 320.182,300 330,300 330,336 294,336 		"></polygon>
		<text transform="matrix(1 0 0 1 306.1758 329)" class="st2 st0 st5">8</text>
	</g>
	<g id="H-9">
		<polygon class="st4" points="250,300 259.818,300 259.818,307.409 276.182,307.409 276.182,300 286,300 286,336 250,336 		"></polygon>
		<text transform="matrix(1 0 0 1 262.1758 329)" class="st2 st0 st5">9</text>
	</g>
	<g id="H-10">
		<polygon class="st4" points="206,300 215.818,300 215.818,307.409 232.182,307.409 232.182,300 242,300 242,336 206,336 		"></polygon>
		<text transform="matrix(1 0 0 1 212.3525 329)" class="st2 st0 st5">10</text>
	</g>
	<g id="H-11">
		<polygon class="st4" points="162,300 171.818,300 171.818,307.409 188.182,307.409 188.182,300 198,300 198,336 162,336 		"></polygon>
		<text transform="matrix(1 0 0 1 168.3525 329)" class="st2 st0 st5">11</text>
	</g>
	<g id="G-1">
		<polygon class="st4" points="602,361 611.818,361 611.818,368.409 628.182,368.409 628.182,361 638,361 638,397 602,397 		"></polygon>
		<text transform="matrix(1 0 0 1 614.1758 390)" class="st2 st0 st5">1</text>
	</g>
	<g id="G-2">
		<polygon class="st4" points="558,361 567.818,361 567.818,368.409 584.182,368.409 584.182,361 594,361 594,397 558,397 		"></polygon>
		<text transform="matrix(1 0 0 1 570.1758 390)" class="st2 st0 st5">2</text>
	</g>
	<g id="G-3">
		<polygon class="st4" points="514,361 523.818,361 523.818,368.409 540.182,368.409 540.182,361 550,361 550,397 514,397 		"></polygon>
		<text transform="matrix(1 0 0 1 526.1758 390)" class="st2 st0 st5">3</text>
	</g>
	<g id="G-4">
		<polygon class="st4" points="470,361 479.818,361 479.818,368.409 496.182,368.409 496.182,361 506,361 506,397 470,397 		"></polygon>
		<text transform="matrix(1 0 0 1 482.1758 390)" class="st2 st0 st5">4</text>
	</g>
	<g id="G-5">
		<polygon class="st4" points="426,361 435.818,361 435.818,368.409 452.182,368.409 452.182,361 462,361 462,397 426,397 		"></polygon>
		<text transform="matrix(1 0 0 1 438.1758 390)" class="st2 st0 st5">5</text>
	</g>
	<g id="G-6">
		<polygon class="st4" points="382,361 391.818,361 391.818,368.409 408.182,368.409 408.182,361 418,361 418,397 382,397 		"></polygon>
		<text transform="matrix(1 0 0 1 394.1758 390)" class="st2 st0 st5">6</text>
	</g>
	<g id="G-7">
		<polygon class="st4" points="338,361 347.818,361 347.818,368.409 364.182,368.409 364.182,361 374,361 374,397 338,397 		"></polygon>
		<text transform="matrix(1 0 0 1 350.1758 390)" class="st2 st0 st5">7</text>
	</g>
	<g id="G-8">
		<polygon class="st4" points="294,361 303.818,361 303.818,368.409 320.182,368.409 320.182,361 330,361 330,397 294,397 		"></polygon>
		<text transform="matrix(1 0 0 1 306.1758 390)" class="st2 st0 st5">8</text>
	</g>
	<g id="G-9">
		<polygon class="st4" points="250,361 259.818,361 259.818,368.409 276.182,368.409 276.182,361 286,361 286,397 250,397 		"></polygon>
		<text transform="matrix(1 0 0 1 262.1758 390)" class="st2 st0 st5">9</text>
	</g>
	<g id="G-10" >
		<polygon class="st4" points="206,361 215.818,361 215.818,368.409 232.182,368.409 232.182,361 242,361 242,397 206,397 		"></polygon>
		<text transform="matrix(1 0 0 1 212.3525 390)" class="st2 st0 st5">10</text>
	</g>
	<g id="G-11" >
		<polygon class="st4" points="162,361 171.818,361 171.818,368.409 188.182,368.409 188.182,361 198,361 198,397 162,397 		"></polygon>
		<text transform="matrix(1 0 0 1 168.3525 390)" class="st2 st0 st5">11</text>
	</g>
	<g id="F-1">
		<polygon class="st4" points="602,422 611.818,422 611.818,429.409 628.182,429.409 628.182,422 638,422 638,458 602,458 		"></polygon>
		<text transform="matrix(1 0 0 1 614.1758 451)" class="st2 st0 st5">1</text>
	</g>
	<g id="F-2">
		<polygon class="st4" points="558,422 567.818,422 567.818,429.409 584.182,429.409 584.182,422 594,422 594,458 558,458 		"></polygon>
		<text transform="matrix(1 0 0 1 570.1758 451)" class="st2 st0 st5">2</text>
	</g>
	<g id="F-3">
		<polygon class="st4" points="514,422 523.818,422 523.818,429.409 540.182,429.409 540.182,422 550,422 550,458 514,458 		"></polygon>
		<text transform="matrix(1 0 0 1 526.1758 451)" class="st2 st0 st5">3</text>
	</g>
	<g id="F-4">
		<polygon class="st4" points="470,422 479.818,422 479.818,429.409 496.182,429.409 496.182,422 506,422 506,458 470,458 		"></polygon>
		<text transform="matrix(1 0 0 1 482.1758 451)" class="st2 st0 st5">4</text>
	</g>
	<g id="F-5">
		<polygon class="st4" points="426,422 435.818,422 435.818,429.409 452.182,429.409 452.182,422 462,422 462,458 426,458 		"></polygon>
		<text transform="matrix(1 0 0 1 438.1758 451)" class="st2 st0 st5">5</text>
	</g>
	<g id="F-6" >
		<polygon class="st4" points="382,422 391.818,422 391.818,429.409 408.182,429.409 408.182,422 418,422 418,458 382,458 		"></polygon>
		<text transform="matrix(1 0 0 1 394.1758 451)" class="st2 st0 st5">6</text>
	</g>
	<g id="F-7">
		<polygon class="st4" points="338,422 347.818,422 347.818,429.409 364.182,429.409 364.182,422 374,422 374,458 338,458 		"></polygon>
		<text transform="matrix(1 0 0 1 350.1758 451)" class="st2 st0 st5">7</text>
	</g>
	<g id="F-8">
		<polygon class="st4" points="294,422 303.818,422 303.818,429.409 320.182,429.409 320.182,422 330,422 330,458 294,458 		"></polygon>
		<text transform="matrix(1 0 0 1 306.1758 451)" class="st2 st0 st5">8</text>
	</g>
	<g id="F-9">
		<polygon class="st4" points="250,422 259.818,422 259.818,429.409 276.182,429.409 276.182,422 286,422 286,458 250,458 		"></polygon>
		<text transform="matrix(1 0 0 1 262.1758 451)" class="st2 st0 st5">9</text>
	</g>
	<g id="F-10">
		<polygon class="st4" points="206,422 215.818,422 215.818,429.409 232.182,429.409 232.182,422 242,422 242,458 206,458 		"></polygon>
		<text transform="matrix(1 0 0 1 212.3525 451)" class="st2 st0 st5">10</text>
	</g>
	<g id="F-11">
		<polygon class="st4" points="162,422 171.818,422 171.818,429.409 188.182,429.409 188.182,422 198,422 198,458 162,458 		"></polygon>
		<text transform="matrix(1 0 0 1 168.3525 451)" class="st2 st0 st5">11</text>
	</g>
	<g id="E-1">
		<polygon class="st4" points="602,483 611.818,483 611.818,490.409 628.182,490.409 628.182,483 638,483 638,519 602,519 		"></polygon>
		<text transform="matrix(1 0 0 1 614.1758 512)" class="st2 st0 st5">1</text>
	</g>
	<g id="E-2">
		<polygon class="st4" points="558,483 567.818,483 567.818,490.409 584.182,490.409 584.182,483 594,483 594,519 558,519 		"></polygon>
		<text transform="matrix(1 0 0 1 570.1758 512)" class="st2 st0 st5">2</text>
	</g>
	<g id="E-3">
		<polygon class="st4" points="514,483 523.818,483 523.818,490.409 540.182,490.409 540.182,483 550,483 550,519 514,519 		"></polygon>
		<text transform="matrix(1 0 0 1 526.1758 512)" class="st2 st0 st5">3</text>
	</g>
	<g id="E-4">
		<polygon class="st4" points="470,483 479.818,483 479.818,490.409 496.182,490.409 496.182,483 506,483 506,519 470,519 		"></polygon>
		<text transform="matrix(1 0 0 1 482.1758 512)" class="st2 st0 st5">4</text>
	</g>
	<g id="E-5">
		<polygon class="st4" points="426,483 435.818,483 435.818,490.409 452.182,490.409 452.182,483 462,483 462,519 426,519 		"></polygon>
		<text transform="matrix(1 0 0 1 438.1758 512)" class="st2 st0 st5">5</text>
	</g>
	<g id="E-6">
		<polygon class="st4" points="382,483 391.818,483 391.818,490.409 408.182,490.409 408.182,483 418,483 418,519 382,519 		"></polygon>
		<text transform="matrix(1 0 0 1 394.1758 512)" class="st2 st0 st5">6</text>
	</g>
	<g id="E-7">
		<polygon class="st4" points="338,483 347.818,483 347.818,490.409 364.182,490.409 364.182,483 374,483 374,519 338,519 		"></polygon>
		<text transform="matrix(1 0 0 1 350.1758 512)" class="st2 st0 st5">7</text>
	</g>
	<g id="E-8">
		<polygon class="st4" points="294,483 303.818,483 303.818,490.409 320.182,490.409 320.182,483 330,483 330,519 294,519 		"></polygon>
		<text transform="matrix(1 0 0 1 306.1758 512)" class="st2 st0 st5">8</text>
	</g>
	<g id="E-9">
		<polygon class="st4" points="250,483 259.818,483 259.818,490.409 276.182,490.409 276.182,483 286,483 286,519 250,519 		"></polygon>
		<text transform="matrix(1 0 0 1 262.1758 512)" class="st2 st0 st5">9</text>
	</g>
	<g id="E-10">
		<polygon class="st4" points="206,483 215.818,483 215.818,490.409 232.182,490.409 232.182,483 242,483 242,519 206,519 		"></polygon>
		<text transform="matrix(1 0 0 1 212.3525 512)" class="st2 st0 st5">10</text>
	</g>
	<g id="E-11">
		<polygon class="st4" points="162,483 171.818,483 171.818,490.409 188.182,490.409 188.182,483 198,483 198,519 162,519 		"></polygon>
		<text transform="matrix(1 0 0 1 168.3525 512)" class="st2 st0 st5">11</text>
	</g>
	<g id="D-1">
		<polygon class="st4" points="602,544 611.818,544 611.818,551.409 628.182,551.409 628.182,544 638,544 638,580 602,580 		"></polygon>
		<text transform="matrix(1 0 0 1 614.1758 573)" class="st2 st0 st5">1</text>
	</g>
	<g id="D-2">
		<polygon class="st4" points="558,544 567.818,544 567.818,551.409 584.182,551.409 584.182,544 594,544 594,580 558,580 		"></polygon>
		<text transform="matrix(1 0 0 1 570.1758 573)" class="st2 st0 st5">2</text>
	</g>
	<g id="D-3">
		<polygon class="st4" points="514,544 523.818,544 523.818,551.409 540.182,551.409 540.182,544 550,544 550,580 514,580 		"></polygon>
		<text transform="matrix(1 0 0 1 526.1758 573)" class="st2 st0 st5">3</text>
	</g>
	<g id="D-4">
		<polygon class="st4" points="470,544 479.818,544 479.818,551.409 496.182,551.409 496.182,544 506,544 506,580 470,580 		"></polygon>
		<text transform="matrix(1 0 0 1 482.1758 573)" class="st2 st0 st5">4</text>
	</g>
	<g id="D-5">
		<polygon class="st4" points="426,544 435.818,544 435.818,551.409 452.182,551.409 452.182,544 462,544 462,580 426,580 		"></polygon>
		<text transform="matrix(1 0 0 1 438.1758 573)" class="st2 st0 st5">5</text>
	</g>
	<g id="D-6">
		<polygon class="st4" points="382,544 391.818,544 391.818,551.409 408.182,551.409 408.182,544 418,544 418,580 382,580 		"></polygon>
		<text transform="matrix(1 0 0 1 394.1758 573)" class="st2 st0 st5">6</text>
	</g>
	<g id="D-7">
		<polygon class="st4" points="338,544 347.818,544 347.818,551.409 364.182,551.409 364.182,544 374,544 374,580 338,580 		"></polygon>
		<text transform="matrix(1 0 0 1 350.1758 573)" class="st2 st0 st5">7</text>
	</g>
	<g id="D-8">
		<polygon class="st4" points="294,544 303.818,544 303.818,551.409 320.182,551.409 320.182,544 330,544 330,580 294,580 		"></polygon>
		<text transform="matrix(1 0 0 1 306.1758 573)" class="st2 st0 st5">8</text>
	</g>
	<g id="D-9">
		<polygon class="st4" points="250,544 259.818,544 259.818,551.409 276.182,551.409 276.182,544 286,544 286,580 250,580 		"></polygon>
		<text transform="matrix(1 0 0 1 262.1758 573)" class="st2 st0 st5">9</text>
	</g>
	<g id="D-10">
		<polygon class="st4" points="206,544 215.818,544 215.818,551.409 232.182,551.409 232.182,544 242,544 242,580 206,580 		"></polygon>
		<text transform="matrix(1 0 0 1 212.3525 573)" class="st2 st0 st5">10</text>
	</g>
	<g id="D-11">
		<polygon class="st4" points="162,544 171.818,544 171.818,551.409 188.182,551.409 188.182,544 198,544 198,580 162,580 		"></polygon>
		<text transform="matrix(1 0 0 1 168.3525 573)" class="st2 st0 st5">11</text>
	</g>
	<g id="C-1">
		<polygon class="st4" points="602,605 611.818,605 611.818,612.409 628.182,612.409 628.182,605 638,605 638,641 602,641 		"></polygon>
		<text transform="matrix(1 0 0 1 614.1758 634)" class="st2 st0 st5">1</text>
	</g>
	<g id="C-2">
		<polygon class="st4" points="558,605 567.818,605 567.818,612.409 584.182,612.409 584.182,605 594,605 594,641 558,641 		"></polygon>
		<text transform="matrix(1 0 0 1 570.1758 634)" class="st2 st0 st5">2</text>
	</g>
	<g id="C-3">
		<polygon class="st4" points="514,605 523.818,605 523.818,612.409 540.182,612.409 540.182,605 550,605 550,641 514,641 		"></polygon>
		<text transform="matrix(1 0 0 1 526.1758 634)" class="st2 st0 st5">3</text>
	</g>
	<g id="C-4">
		<polygon class="st4" points="470,605 479.818,605 479.818,612.409 496.182,612.409 496.182,605 506,605 506,641 470,641 		"></polygon>
		<text transform="matrix(1 0 0 1 482.1758 634)" class="st2 st0 st5">4</text>
	</g>
	<g id="C-5">
		<polygon class="st4" points="426,605 435.818,605 435.818,612.409 452.182,612.409 452.182,605 462,605 462,641 426,641 		"></polygon>
		<text transform="matrix(1 0 0 1 438.1758 634)" class="st2 st0 st5">5</text>
	</g>
	<g id="C-6">
		<polygon class="st4" points="382,605 391.818,605 391.818,612.409 408.182,612.409 408.182,605 418,605 418,641 382,641 		"></polygon>
		<text transform="matrix(1 0 0 1 394.1758 634)" class="st2 st0 st5">6</text>
	</g>
	<g id="C-7">
		<polygon class="st4" points="338,605 347.818,605 347.818,612.409 364.182,612.409 364.182,605 374,605 374,641 338,641 		"></polygon>
		<text transform="matrix(1 0 0 1 350.1758 634)" class="st2 st0 st5">7</text>
	</g>
	<g id="C-8">
		<polygon class="st4" points="294,605 303.818,605 303.818,612.409 320.182,612.409 320.182,605 330,605 330,641 294,641 		"></polygon>
		<text transform="matrix(1 0 0 1 306.1758 634)" class="st2 st0 st5">8</text>
	</g>
	<g id="C-9">
		<polygon class="st4" points="250,605 259.818,605 259.818,612.409 276.182,612.409 276.182,605 286,605 286,641 250,641 		"></polygon>
		<text transform="matrix(1 0 0 1 262.1758 634)" class="st2 st0 st5">9</text>
	</g>
	<g id="C-10">
		<polygon class="st4" points="206,605 215.818,605 215.818,612.409 232.182,612.409 232.182,605 242,605 242,641 206,641 		"></polygon>
		<text transform="matrix(1 0 0 1 212.3525 634)" class="st2 st0 st5">10</text>
	</g>
	<g id="C-11">
		<polygon class="st4" points="162,605 171.818,605 171.818,612.409 188.182,612.409 188.182,605 198,605 198,641 162,641 		"></polygon>
		<text transform="matrix(1 0 0 1 168.3525 634)" class="st2 st0 st5">11</text>
	</g>
	<g id="B-1">
		<polygon class="st4" points="602,666 611.818,666 611.818,673.409 628.182,673.409 628.182,666 638,666 638,702 602,702 		"></polygon>
		<text transform="matrix(1 0 0 1 614.1758 695)" class="st2 st0 st5">1</text>
	</g>
	<g id="B-2">
		<polygon class="st4" points="558,666 567.818,666 567.818,673.409 584.182,673.409 584.182,666 594,666 594,702 558,702 		"></polygon>
		<text transform="matrix(1 0 0 1 570.1758 695)" class="st2 st0 st5">2</text>
	</g>
	<g id="B-3">
		<polygon class="st4" points="514,666 523.818,666 523.818,673.409 540.182,673.409 540.182,666 550,666 550,702 514,702 		"></polygon>
		<text transform="matrix(1 0 0 1 526.1758 695)" class="st2 st0 st5">3</text>
	</g>
	<g id="B-4">
		<polygon class="st4" points="470,666 479.818,666 479.818,673.409 496.182,673.409 496.182,666 506,666 506,702 470,702 		"></polygon>
		<text transform="matrix(1 0 0 1 482.1758 695)" class="st2 st0 st5">4</text>
	</g>
	<g id="B-5">
		<polygon class="st4" points="426,666 435.818,666 435.818,673.409 452.182,673.409 452.182,666 462,666 462,702 426,702 		"></polygon>
		<text transform="matrix(1 0 0 1 438.1758 695)" class="st2 st0 st5">5</text>
	</g>
	<g id="B-6">
		<polygon class="st4" points="382,666 391.818,666 391.818,673.409 408.182,673.409 408.182,666 418,666 418,702 382,702 		"></polygon>
		<text transform="matrix(1 0 0 1 394.1758 695)" class="st2 st0 st5">6</text>
	</g>
	<g id="B-7">
		<polygon class="st4" points="338,666 347.818,666 347.818,673.409 364.182,673.409 364.182,666 374,666 374,702 338,702 		"></polygon>
		<text transform="matrix(1 0 0 1 350.1758 695)" class="st2 st0 st5">7</text>
	</g>
	<g id="B-8">
		<polygon class="st4" points="294,666 303.818,666 303.818,673.409 320.182,673.409 320.182,666 330,666 330,702 294,702 		"></polygon>
		<text transform="matrix(1 0 0 1 306.1758 695)" class="st2 st0 st5">8</text>
	</g>
	<g id="B-9">
		<polygon class="st4" points="250,666 259.818,666 259.818,673.409 276.182,673.409 276.182,666 286,666 286,702 250,702 		"></polygon>
		<text transform="matrix(1 0 0 1 262.1758 695)" class="st2 st0 st5">9</text>
	</g>
	<g id="B-10">
		<polygon class="st4" points="206,666 215.818,666 215.818,673.409 232.182,673.409 232.182,666 242,666 242,702 206,702 		"></polygon>
		<text transform="matrix(1 0 0 1 212.3525 695)" class="st2 st0 st5">10</text>
	</g>
	<g id="B-11" >
		<polygon class="st4" points="162,666 171.818,666 171.818,673.409 188.182,673.409 188.182,666 198,666 198,702 162,702 		"></polygon>
		<text transform="matrix(1 0 0 1 168.3525 695)" class="st2 st0 st5">11</text>
	</g>
	<g id="A-1">
		<polygon class="st4" points="602,727 611.818,727 611.818,734.409 628.182,734.409 628.182,727 638,727 638,763 602,763 		"></polygon>
		<text transform="matrix(1 0 0 1 614.1758 756)" class="st2 st0 st5">1</text>
	</g>
	<g id="A-2">
		<polygon class="st4" points="558,727 567.818,727 567.818,734.409 584.182,734.409 584.182,727 594,727 594,763 558,763 		"></polygon>
		<text transform="matrix(1 0 0 1 570.1758 756)" class="st2 st0 st5">2</text>
	</g>
	<g id="A-3">
		<polygon class="st4" points="514,727 523.818,727 523.818,734.409 540.182,734.409 540.182,727 550,727 550,763 514,763 		"></polygon>
		<text transform="matrix(1 0 0 1 526.1758 756)" class="st2 st0 st5">3</text>
	</g>
	<g id="A-4">
		<polygon class="st4" points="470,727 479.818,727 479.818,734.409 496.182,734.409 496.182,727 506,727 506,763 470,763 		"></polygon>
		<text transform="matrix(1 0 0 1 482.1758 756)" class="st2 st0 st5">4</text>
	</g>
	<g id="A-5">
		<polygon class="st4" points="426,727 435.818,727 435.818,734.409 452.182,734.409 452.182,727 462,727 462,763 426,763 		"></polygon>
		<text transform="matrix(1 0 0 1 438.1758 756)" class="st2 st0 st5">5</text>
	</g>
	<g id="A-6">
		<polygon class="st4" points="382,727 391.818,727 391.818,734.409 408.182,734.409 408.182,727 418,727 418,763 382,763 		"></polygon>
		<text transform="matrix(1 0 0 1 394.1758 756)" class="st2 st0 st5">6</text>
	</g>
	<g id="A-7">
		<polygon class="st4" points="338,727 347.818,727 347.818,734.409 364.182,734.409 364.182,727 374,727 374,763 338,763 		"></polygon>
		<text transform="matrix(1 0 0 1 350.1758 756)" class="st2 st0 st5">7</text>
	</g>
	<g id="A-8">
		<polygon class="st4" points="294,727 303.818,727 303.818,734.409 320.182,734.409 320.182,727 330,727 330,763 294,763 		"></polygon>
		<text transform="matrix(1 0 0 1 306.1758 756)" class="st2 st0 st5">8</text>
	</g>
	<g id="A-9">
		<polygon class="st4" points="250,727 259.818,727 259.818,734.409 276.182,734.409 276.182,727 286,727 286,763 250,763 		"></polygon>
		<text transform="matrix(1 0 0 1 262.1758 756)" class="st2 st0 st5">9</text>
	</g>
	<g id="A-10" >
		<polygon class="st4" points="206,727 215.818,727 215.818,734.409 232.182,734.409 232.182,727 242,727 242,763 206,763 		"></polygon>
		<text transform="matrix(1 0 0 1 212.3525 756)" class="st2 st0 st5">10</text>
	</g>
	<g id="A-11">
		<polygon class="st4" points="162,727 171.818,727 171.818,734.409 188.182,734.409 188.182,727 198,727 198,763 162,763 		"></polygon>
		<text transform="matrix(1 0 0 1 168.3525 756)" class="st2 st0 st5">11</text>
	</g>
	<g id="K-1" >
		<circle class="st4" cx="91" cy="895" r="15"></circle>
		<text transform="matrix(1 0 0 1 86.4238 901)" class="st2 st0 st3">1</text>
	</g>
	<g id="K-2" >
		<circle class="st4" cx="135" cy="895" r="15"></circle>
		<text transform="matrix(1 0 0 1 130.4238 901)" class="st2 st0 st3">2</text>
	</g>
	<g id="K-3" >
		<circle class="st4" cx="179" cy="895" r="15"></circle>
		<text transform="matrix(1 0 0 1 174.4238 901)" class="st2 st0 st3">3</text>
	</g>
	<g id="K-4" >
		<circle class="st4" cx="223" cy="895" r="15"></circle>
		<text transform="matrix(1 0 0 1 218.4238 901)" class="st2 st0 st3">4</text>
	</g>
	<g id="K-5" >
		<circle class="st4" cx="267" cy="895" r="15"></circle>
		<text transform="matrix(1 0 0 1 262.4238 901)" class="st2 st0 st3">5</text>
	</g>
	<g id="K-6" >
		<circle class="st4" cx="311" cy="895" r="15"></circle>
		<text transform="matrix(1 0 0 1 306.4238 901)" class="st2 st0 st3">6</text>
	</g>
	<g id="K-7" >
		<circle class="st4" cx="355" cy="895" r="15"></circle>
		<text transform="matrix(1 0 0 1 350.4238 901)" class="st2 st0 st3">7</text>
	</g>
	<g id="K-8" >
		<circle class="st4" cx="399" cy="895" r="15"></circle>
		<text transform="matrix(1 0 0 1 394.4238 901)" class="st2 st0 st3">8</text>
	</g>
	<g id="K-9" >
		<circle class="st4" cx="443" cy="895" r="15"></circle>
		<text transform="matrix(1 0 0 1 438.4238 901)" class="st2 st0 st3">9</text>
	</g>
	<g id="K-10" >
		<circle class="st4" cx="487" cy="895" r="15"></circle>
		<text transform="matrix(1 0 0 1 477.8477 901)" class="st2 st0 st3">10</text>
	</g>
	<g id="K-11" >
		<circle class="st4" cx="531" cy="895" r="15"></circle>
		<text transform="matrix(1 0 0 1 521.8477 901)" class="st2 st0 st3">11</text>
	</g>
	<g id="K-12" >
		<circle class="st4" cx="575" cy="895" r="15"></circle>
		<text transform="matrix(1 0 0 1 565.8477 901)" class="st2 st0 st3">12</text>
	</g>
	<g id="K-13" >
		<circle class="st4" cx="619" cy="895" r="15"></circle>
		<text transform="matrix(1 0 0 1 609.8477 901)" class="st2 st0 st3">13</text>
	</g>
	<g id="K-14" >
		<circle class="st4" cx="663" cy="895" r="15"></circle>
		<text transform="matrix(1 0 0 1 653.8477 901)" class="st2 st0 st3">14</text>
	</g>
	<g id="K-15" >
		<circle class="st4" cx="707" cy="895" r="15"></circle>
		<text transform="matrix(1 0 0 1 697.8477 901)" class="st2 st0 st3">15</text>
	</g>
	<g id="K-16" >
		<circle class="st4" cx="91" cy="937" r="15"></circle>
		<text transform="matrix(1 0 0 1 81.8477 943)" class="st2 st0 st3">16</text>
	</g>
	<g id="K-17" >
		<circle class="st4" cx="135" cy="937" r="15"></circle>
		<text transform="matrix(1 0 0 1 125.8477 943)" class="st2 st0 st3">17</text>
	</g>
	<g id="K-18" >
		<circle class="st4" cx="179" cy="937" r="15"></circle>
		<text transform="matrix(1 0 0 1 169.8477 943)" class="st2 st0 st3">18</text>
	</g>
	<g id="K-19" >
		<circle class="st4" cx="223" cy="937" r="15"></circle>
		<text transform="matrix(1 0 0 1 213.8477 943)" class="st2 st0 st3">19</text>
	</g>
	<g id="K-20" >
		<circle class="st4" cx="267" cy="937" r="15"></circle>
		<text transform="matrix(1 0 0 1 257.8477 943)" class="st2 st0 st3">20</text>
	</g>
	<g id="K-21" >
		<circle class="st4" cx="311" cy="937" r="15"></circle>
		<text transform="matrix(1 0 0 1 301.8477 943)" class="st2 st0 st3">21</text>
	</g>
	<g id="K-22" >
		<circle class="st4" cx="355" cy="937" r="15"></circle>
		<text transform="matrix(1 0 0 1 345.8477 943)" class="st2 st0 st3">22</text>
	</g>
</g>
<g id="row">
		<path d="M132.352,749.96h-4.8l-1.104,5.04h-1.968l4.32-17.52h2.4l4.32,17.52h-2.064L132.352,749.96z M129.976,739.16h-0.048
			l-1.992,9.12h4.032L129.976,739.16z"></path>
		<path d="M134.92,688.96c0,3.521-1.8,5.28-5.4,5.28c-1.28,0-2.52-0.12-3.72-0.36V676.6c1.2-0.239,2.44-0.359,3.72-0.359
			c3.28,0,4.92,1.439,4.92,4.319c0,0.977-0.244,1.801-0.732,2.473c-0.488,0.672-1.164,1.12-2.028,1.344v0.048
			c0.928,0.177,1.7,0.688,2.316,1.536C134.612,686.809,134.92,687.808,134.92,688.96z M127.768,683.68h1.08
			c1.28,0,2.211-0.235,2.796-0.708c0.584-0.472,0.876-1.195,0.876-2.172c0-0.912-0.288-1.62-0.864-2.124
			c-0.576-0.504-1.392-0.756-2.448-0.756c-0.576,0-1.056,0.064-1.44,0.192V683.68z M127.768,685.36v7.008
			c0.592,0.128,1.312,0.191,2.16,0.191c2.016,0,3.024-1.279,3.024-3.84c0-2.239-1.288-3.359-3.864-3.359H127.768z"></path>
		<path d="M125.32,624.24c0-3.152,0.484-5.44,1.452-6.864c0.968-1.424,2.404-2.136,4.308-2.136c1.056,0,2.056,0.24,3,0.72v1.8
			c-0.976-0.527-1.936-0.792-2.88-0.792c-2.64,0-3.96,2.424-3.96,7.272c0,2.624,0.336,4.492,1.008,5.604
			c0.672,1.112,1.656,1.668,2.952,1.668c0.992,0,1.992-0.304,3-0.912v1.92c-0.944,0.48-1.984,0.721-3.12,0.721
			c-1.952,0-3.4-0.688-4.344-2.064C125.792,629.8,125.32,627.488,125.32,624.24z"></path>
		<path d="M135.16,563.24c0,3.312-0.508,5.64-1.524,6.983c-1.017,1.345-2.612,2.017-4.788,2.017c-1.12,0-2.216-0.12-3.288-0.36
			V554.6c1.072-0.239,2.168-0.359,3.288-0.359c2.192,0,3.792,0.684,4.8,2.052S135.16,559.976,135.16,563.24z M133.192,563.24
			c0-2.688-0.348-4.572-1.044-5.652c-0.696-1.08-1.796-1.62-3.3-1.62c-0.528,0-0.968,0.064-1.32,0.192v14.16
			c0.352,0.128,0.792,0.191,1.32,0.191c1.04,0,1.86-0.195,2.46-0.588c0.6-0.392,1.064-1.124,1.392-2.196
			C133.028,566.656,133.192,565.16,133.192,563.24z"></path>
		<path d="M127.888,495.208v5.472h5.952v1.681h-5.952v6.912h6.192V511h-8.16v-17.52h8.16v1.728H127.888z"></path>
		<path d="M128.128,441.36V450h-1.968v-17.52h7.92v1.728h-5.952v5.472h5.712v1.681H128.128z"></path>
		<path d="M132.88,386.96v-6.6h-3.72v-1.681h5.64v9.601c-1.28,0.64-2.64,0.96-4.08,0.96c-1.888,0-3.32-0.712-4.296-2.137
			c-0.976-1.424-1.464-3.711-1.464-6.863c0-3.136,0.508-5.42,1.524-6.853c1.016-1.432,2.548-2.147,4.596-2.147
			c0.944,0,1.984,0.2,3.12,0.6v1.849c-1.056-0.48-2.097-0.721-3.12-0.721c-1.392,0-2.448,0.576-3.168,1.729
			c-0.72,1.151-1.08,3-1.08,5.544c0,4.848,1.336,7.271,4.008,7.271C131.56,387.512,132.24,387.328,132.88,386.96z"></path>
		<path d="M127.36,310.48v7.151h5.184v-7.151h2.016V328h-2.016v-8.64h-5.184V328h-1.92v-17.52H127.36z"></path>
		<path d="M133.84,267h-7.68v-1.68h2.832v-14.16h-2.832v-1.68h7.68v1.68h-2.832v14.16h2.832V267z"></path>
		<path d="M133.6,188.48v12.96c0,1.76-0.348,3-1.044,3.72c-0.696,0.72-1.868,1.08-3.516,1.08c-1.312,0-2.512-0.24-3.6-0.721v-2.088
			c0.464,0.272,1.068,0.521,1.812,0.744c0.744,0.225,1.34,0.336,1.788,0.336c0.848,0,1.479-0.243,1.896-0.731
			c0.416-0.488,0.624-1.284,0.624-2.389V190.16h-3.96v-1.68H133.6z"></path>
</g>
<g id="column">
</g>
</svg>